<?xml version="1.0" encoding="UTF-8"?>
<svg xmlns="http://www.w3.org/2000/svg" width="1200" height="156" viewBox="0 0 1200 156" role="img" aria-labelledby="title description">
  <title id="title">世界線変動率 1.048596%</title>
  <desc id="description">Seven glowing tubes display the divergence value 1.048596 percent.</desc>
  <defs>
    <linearGradient id="panel" x1="0" y1="0" x2="1" y2="1">
      <stop offset="0" stop-color="#050608"/>
      <stop offset=".52" stop-color="#090a0d"/>
      <stop offset="1" stop-color="#080b0f"/>
    </linearGradient>
    <linearGradient id="tube-glass" x1="0" y1="0" x2="1" y2="0">
      <stop offset="0" stop-color="#e6f4f4" stop-opacity=".04"/>
      <stop offset=".38" stop-color="#d8eeec" stop-opacity=".11"/>
      <stop offset=".56" stop-color="#ffffff" stop-opacity=".025"/>
      <stop offset="1" stop-color="#090b0c" stop-opacity=".58"/>
    </linearGradient>
    <radialGradient id="ambient" cx="50%" cy="100%" r="65%">
      <stop offset="0" stop-color="#8c420f" stop-opacity=".35"/>
      <stop offset="1" stop-color="#8c420f" stop-opacity="0"/>
    </radialGradient>
    <filter id="digit-glow" x="-80%" y="-80%" width="260%" height="260%">
      <feGaussianBlur stdDeviation="4" result="blur"/>
      <feMerge><feMergeNode in="blur"/><feMergeNode in="SourceGraphic"/></feMerge>
    </filter>
    <style>
      .label { fill:#58636b; font: 600 10px ui-monospace, SFMono-Regular, Menlo, Consolas, monospace; letter-spacing:2.2px; }
      .tube { fill:url(#tube-glass); stroke:#758186; stroke-opacity:.48; }
      .tube-shadow { fill:#20262a; }
      .glass { fill:none; stroke:#efffff; stroke-opacity:.16; stroke-width:2; stroke-linecap:round; }
      .wire { fill:none; stroke:#9b704e; stroke-opacity:.38; stroke-width:1.2; }
      .digit { fill:#ff9e45; font: 700 48px ui-monospace, SFMono-Regular, Menlo, Consolas, monospace; text-anchor:middle; filter:url(#digit-glow); }
      .punctuation { fill:#ff9e45; font: 700 35px ui-monospace, SFMono-Regular, Menlo, Consolas, monospace; filter:url(#digit-glow); }

    </style>
  </defs>
  <rect x="1" y="1" width="1198" height="154" rx="12" fill="url(#panel)" stroke="#27323a"/>
  <rect x="120" y="65" width="960" height="90" fill="url(#ambient)"/>
  <text class="label" x="600" y="24" text-anchor="middle">世界線変動率 · DIVERGENCE METER</text>
  <g transform="translate(337 40)">
        <rect class="tube-shadow" x="5" y="91" width="56" height="8" rx="2"/>
        <rect class="tube" width="66" height="96" rx="24"/>
        <path class="glass" d="M13 16C20 7 45 5 54 19"/>
        <path class="wire" d="M20 82V66M46 82V66"/>
        <text class="digit digit-0" x="33" y="68">1</text>
      </g>
      <g transform="translate(431 40)">
        <rect class="tube-shadow" x="5" y="91" width="56" height="8" rx="2"/>
        <rect class="tube" width="66" height="96" rx="24"/>
        <path class="glass" d="M13 16C20 7 45 5 54 19"/>
        <path class="wire" d="M20 82V66M46 82V66"/>
        <text class="digit digit-1" x="33" y="68">0</text>
      </g>
      <g transform="translate(511 40)">
        <rect class="tube-shadow" x="5" y="91" width="56" height="8" rx="2"/>
        <rect class="tube" width="66" height="96" rx="24"/>
        <path class="glass" d="M13 16C20 7 45 5 54 19"/>
        <path class="wire" d="M20 82V66M46 82V66"/>
        <text class="digit digit-2" x="33" y="68">4</text>
      </g>
      <g transform="translate(591 40)">
        <rect class="tube-shadow" x="5" y="91" width="56" height="8" rx="2"/>
        <rect class="tube" width="66" height="96" rx="24"/>
        <path class="glass" d="M13 16C20 7 45 5 54 19"/>
        <path class="wire" d="M20 82V66M46 82V66"/>
        <text class="digit digit-3" x="33" y="68">8</text>
      </g>
      <g transform="translate(671 40)">
        <rect class="tube-shadow" x="5" y="91" width="56" height="8" rx="2"/>
        <rect class="tube" width="66" height="96" rx="24"/>
        <path class="glass" d="M13 16C20 7 45 5 54 19"/>
        <path class="wire" d="M20 82V66M46 82V66"/>
        <text class="digit digit-4" x="33" y="68">5</text>
      </g>
      <g transform="translate(751 40)">
        <rect class="tube-shadow" x="5" y="91" width="56" height="8" rx="2"/>
        <rect class="tube" width="66" height="96" rx="24"/>
        <path class="glass" d="M13 16C20 7 45 5 54 19"/>
        <path class="wire" d="M20 82V66M46 82V66"/>
        <text class="digit digit-5" x="33" y="68">9</text>
      </g>
      <g transform="translate(831 40)">
        <rect class="tube-shadow" x="5" y="91" width="56" height="8" rx="2"/>
        <rect class="tube" width="66" height="96" rx="24"/>
        <path class="glass" d="M13 16C20 7 45 5 54 19"/>
        <path class="wire" d="M20 82V66M46 82V66"/>
        <text class="digit digit-6" x="33" y="68">6</text>
      </g>
  <text class="punctuation" x="417" y="108">.</text>
  <text class="punctuation" x="925" y="106">%</text>
</svg>
